<svg xmlns="http://www.w3.org/2000/svg" width="120" height="120"><defs><linearGradient id="frame" x1="433.5" x2="433.5" y1="-185" y2="-277" gradientTransform="matrix(1 0 0 -1 -373.5 -177)" gradientUnits="userSpaceOnUse"><stop offset="0" stop-color="#29abe2"/><stop offset=".476" stop-color="#28a9e1"/><stop offset=".664" stop-color="#23a2dc"/><stop offset=".801" stop-color="#1a96d4"/><stop offset=".913" stop-color="#0e85c9"/><stop offset="1" stop-color="#0071bc"/></linearGradient><filter id="blur" width="12" height="12" x="-10" y="-10"><feGaussianBlur in="SourceGraphic" stdDeviation="1"/></filter></defs><rect width="100" height="100" x="10" y="9" filter="url(#blur)" opacity=".5" rx="20"/><rect width="100" height="50" x="10" y="58" fill="#115a91" rx="20"/><rect width="100" height="92" x="10" y="8" fill="url(#frame)" rx="20"/><rect width="76" height="68" x="22" y="20" fill="#fff" rx="10"/><path d="M57,29v12H43v26h14v13H30V29H57M90,28v51H63V67h15V41H63V29H90" filter="url(#blur)" opacity=".5"/><path fill="#4d4d4d" d="M57,28v12H43v26h14v13H30V28H57M90,28v51H63V66h15V40H63V28H90"/></svg>