<svg xmlns="http://www.w3.org/2000/svg" xmlns:xlink="http://www.w3.org/1999/xlink" id="Layer_1" width="73" height="64" x="0" y="0" enable-background="new 0 0 73 64" version="1.1" viewBox="0 0 73 64" xml:space="preserve"><g id="only_logo"><g><linearGradient id="SVGID_1_" x1="-1815.33" x2="-1815.33" y1="803.018" y2="772.748" gradientTransform="matrix(1.98 0 0 1.98 3630.6501 -1528.0078)" gradientUnits="userSpaceOnUse"><stop offset="0" style="stop-color:#2075bc"/><stop offset="1" style="stop-color:#29aae1"/></linearGradient><polygon fill="url(#SVGID_1_)" points="53.239 2.139 53.239 2.033 53.239 2.139 53.134 2.033 53.134 2.139 36.297 8.809 19.355 2.139 19.355 2.033 19.249 2.139 19.249 2.033 19.249 2.139 2.306 8.915 2.306 61.967 19.249 55.507 36.297 61.967 36.297 61.967 36.297 61.967 36.297 61.967 36.297 61.967 53.239 55.507 70.288 61.967 70.288 8.915"/><g><linearGradient id="SVGID_2_" x1="-1828.192" x2="-1828.192" y1="803.018" y2="772.748" gradientTransform="matrix(1.98 0 0 1.98 3630.6501 -1528.0078)" gradientUnits="userSpaceOnUse"><stop offset="0" style="stop-color:#0a6aa8"/><stop offset="1" style="stop-color:#1699c8"/></linearGradient><polygon fill="url(#SVGID_2_)" points="2.306 8.915 2.306 61.967 19.355 55.507 19.355 2.033"/><linearGradient id="SVGID_3_" x1="-1819.635" x2="-1819.635" y1="803.018" y2="772.748" gradientTransform="matrix(1.98 0 0 1.98 3630.6501 -1528.0078)" gradientUnits="userSpaceOnUse"><stop offset="0" style="stop-color:#2075bc"/><stop offset="1" style="stop-color:#29aae1"/></linearGradient><polygon fill="url(#SVGID_3_)" points="36.297 8.915 36.297 61.967 19.249 55.507 19.249 2.033"/><linearGradient id="SVGID_4_" x1="-1811.051" x2="-1811.051" y1="803.018" y2="772.748" gradientTransform="matrix(1.98 0 0 1.98 3630.6501 -1528.0078)" gradientUnits="userSpaceOnUse"><stop offset="0" style="stop-color:#0a6aa8"/><stop offset="1" style="stop-color:#1699c8"/></linearGradient><polygon fill="url(#SVGID_4_)" points="36.297 8.915 36.297 61.967 53.239 55.507 53.239 2.033"/><linearGradient id="SVGID_5_" x1="-1802.495" x2="-1802.495" y1="803.018" y2="772.748" gradientTransform="matrix(1.98 0 0 1.98 3630.6501 -1528.0078)" gradientUnits="userSpaceOnUse"><stop offset="0" style="stop-color:#2075bc"/><stop offset="1" style="stop-color:#29aae1"/></linearGradient><polygon fill="url(#SVGID_5_)" points="70.288 8.915 70.288 61.967 53.134 55.507 53.134 2.033"/></g><g><g><g><g><g><defs><path id="SVGID_6_" d="M60.546,33.164c-0.635-1.8-0.423-4.871-0.742-5.295c-2.012-2.753-9.212-3.176-12.495-6.777 c0.529-1.8-0.635-3.176-1.8-4.341c-1.8-1.271-4.236-0.742-6.141-0.212c-2.117-0.423-4.13-1.271-6.247-1.8 c-4.659-0.529-9.319,2.753-9.319,2.753c-3.388,2.117-8.577,6.566-11.119,9.106c0.635,0.106,1.271-0.423,2.012-0.423 l4.871-1.271c-2.012,1.694-6.247,4.553-7.518,6.883c1.482-0.529,4.659-2.224,6.247-2.436 c-1.377,1.165-4.236,3.494-5.189,4.976c0.106,0.106,0,0.212,0,0.317c1.165-0.635,4.024-2.33,5.401-2.436 c-1.377,1.377-3.812,4.13-4.341,5.93c1.165-0.742,4.13-2.33,5.401-2.753c-0.317,0.742-0.953,1.271-1.377,1.906 c-0.635,0.953-2.012,2.117-2.012,3.282c1.059-0.953,2.33-1.8,3.601-2.436c-0.529,1.165-1.588,2.117-1.906,3.601 c0.847-0.847,2.436-1.271,3.494-1.588l-0.106,0.106c-0.106,0.106-1.271,0.953-2.117,1.906c0.742,0,0.212-0.106,1.165,0.106 h0.529c-0.212,0.106-0.529,0.317-0.847,0.423l0,0c-0.423,0.212-0.953,0.529-1.377,0.742 c2.012,2.542,4.447,4.659,7.306,6.035c3.707,1.8,7.73,2.436,11.859,1.906c0-0.212-0.106-0.423-0.212-0.742l0,0l0,0 c-0.106-0.317-0.212-0.529-0.212-0.847l0,0l0,0c1.377-2.542,0.635-6.989,4.236-8.789c2.436-1.271,2.647-1.906,5.401-1.377 c1.482,0.317,4.765,1.377,6.247,1.059c1.377-0.742,2.117-1.165,3.388-2.012c1.482,0.317,2.012,0.106,2.542-0.635 c-0.529,0.742,0.953-2.753,1.588-4.024L60.546,33.164z"/></defs><clipPath id="SVGID_7_"><use overflow="visible" xlink:href="#SVGID_6_"/></clipPath><ellipse cx="36.297" cy="33.377" fill="#FFF" clip-path="url(#SVGID_7_)" rx="31.555" ry="21.39"/></g></g></g></g><g><g><g><g><defs><path id="SVGID_8_" d="M60.546,33.164c-0.635-1.8-0.423-4.871-0.742-5.295c-2.012-2.753-9.212-3.176-12.495-6.777 c0.529-1.8-0.635-3.176-1.8-4.341c-1.8-1.271-4.236-0.742-6.141-0.212c-2.117-0.423-4.13-1.271-6.247-1.8 c-4.659-0.529-9.319,2.753-9.319,2.753c-3.388,2.117-8.577,6.566-11.119,9.106c0.635,0.106,1.271-0.423,2.012-0.423 l4.871-1.271c-2.012,1.694-6.247,4.553-7.518,6.883c1.482-0.529,4.659-2.224,6.247-2.436 c-1.377,1.165-4.236,3.494-5.189,4.976c0.106,0.106,0,0.212,0,0.317c1.165-0.635,4.024-2.33,5.401-2.436 c-1.377,1.377-3.812,4.13-4.341,5.93c1.165-0.742,4.13-2.33,5.401-2.753c-0.317,0.742-0.953,1.271-1.377,1.906 c-0.635,0.953-2.012,2.117-2.012,3.282c1.059-0.953,2.33-1.8,3.601-2.436c-0.529,1.165-1.588,2.117-1.906,3.601 c0.847-0.847,2.436-1.271,3.494-1.588l-0.106,0.106c-0.106,0.106-1.271,0.953-2.117,1.906c0.742,0,0.212-0.106,1.165,0.106 h0.529c-0.212,0.106-0.529,0.317-0.847,0.423l0,0c-0.423,0.212-0.953,0.529-1.377,0.742 c2.012,2.542,4.447,4.659,7.306,6.035c3.707,1.8,7.73,2.436,11.859,1.906c0-0.212-0.106-0.423-0.212-0.742l0,0l0,0 c-0.106-0.317-0.212-0.529-0.212-0.847l0,0l0,0c1.377-2.542,0.635-6.989,4.236-8.789c2.436-1.271,2.647-1.906,5.401-1.377 c1.482,0.317,4.765,1.377,6.247,1.059c1.377-0.742,2.117-1.165,3.388-2.012c1.482,0.317,2.012,0.106,2.542-0.635 c-0.529,0.742,0.953-2.753,1.588-4.024L60.546,33.164z"/></defs><clipPath id="SVGID_9_"><use overflow="visible" xlink:href="#SVGID_8_"/></clipPath><polygon fill="#F2F2F2" points="2.73 9.869 2.73 63.555 19.566 56.884 19.566 3.091" clip-path="url(#SVGID_9_)"/></g></g></g></g><g><g><g><g><defs><path id="SVGID_10_" d="M60.546,33.164c-0.635-1.8-0.423-4.871-0.742-5.295c-2.012-2.753-9.212-3.176-12.495-6.777 c0.529-1.8-0.635-3.176-1.8-4.341c-1.8-1.271-4.236-0.742-6.141-0.212c-2.117-0.423-4.13-1.271-6.247-1.8 c-4.659-0.529-9.319,2.753-9.319,2.753c-3.388,2.117-8.577,6.566-11.119,9.106c0.635,0.106,1.271-0.423,2.012-0.423 l4.871-1.271c-2.012,1.694-6.247,4.553-7.518,6.883c1.482-0.529,4.659-2.224,6.247-2.436 c-1.377,1.165-4.236,3.494-5.189,4.976c0.106,0.106,0,0.212,0,0.317c1.165-0.635,4.024-2.33,5.401-2.436 c-1.377,1.377-3.812,4.13-4.341,5.93c1.165-0.742,4.13-2.33,5.401-2.753c-0.317,0.742-0.953,1.271-1.377,1.906 c-0.635,0.953-2.012,2.117-2.012,3.282c1.059-0.953,2.33-1.8,3.601-2.436c-0.529,1.165-1.588,2.117-1.906,3.601 c0.847-0.847,2.436-1.271,3.494-1.588l-0.106,0.106c-0.106,0.106-1.271,0.953-2.117,1.906c0.742,0,0.212-0.106,1.165,0.106 h0.529c-0.212,0.106-0.529,0.317-0.847,0.423l0,0c-0.423,0.212-0.953,0.529-1.377,0.742 c2.012,2.542,4.447,4.659,7.306,6.035c3.707,1.8,7.73,2.436,11.859,1.906c0-0.212-0.106-0.423-0.212-0.742l0,0l0,0 c-0.106-0.317-0.212-0.529-0.212-0.847l0,0l0,0c1.377-2.542,0.635-6.989,4.236-8.789c2.436-1.271,2.647-1.906,5.401-1.377 c1.482,0.317,4.765,1.377,6.247,1.059c1.377-0.742,2.117-1.165,3.388-2.012c1.482,0.317,2.012,0.106,2.542-0.635 c-0.529,0.742,0.953-2.753,1.588-4.024L60.546,33.164z"/></defs><clipPath id="SVGID_11_"><use overflow="visible" xlink:href="#SVGID_10_"/></clipPath><polygon fill="#FFF" points="36.403 9.869 36.403 63.555 19.46 56.884 19.46 3.091" clip-path="url(#SVGID_11_)"/></g></g></g></g><g><g><g><g><defs><path id="SVGID_12_" d="M60.546,33.164c-0.635-1.8-0.423-4.871-0.742-5.295c-2.012-2.753-9.212-3.176-12.495-6.777 c0.529-1.8-0.635-3.176-1.8-4.341c-1.8-1.271-4.236-0.742-6.141-0.212c-2.117-0.423-4.13-1.271-6.247-1.8 c-4.659-0.529-9.319,2.753-9.319,2.753c-3.388,2.117-8.577,6.566-11.119,9.106c0.635,0.106,1.271-0.423,2.012-0.423 l4.871-1.271c-2.012,1.694-6.247,4.553-7.518,6.883c1.482-0.529,4.659-2.224,6.247-2.436 c-1.377,1.165-4.236,3.494-5.189,4.976c0.106,0.106,0,0.212,0,0.317c1.165-0.635,4.024-2.33,5.401-2.436 c-1.377,1.377-3.812,4.13-4.341,5.93c1.165-0.742,4.13-2.33,5.401-2.753c-0.317,0.742-0.953,1.271-1.377,1.906 c-0.635,0.953-2.012,2.117-2.012,3.282c1.059-0.953,2.33-1.8,3.601-2.436c-0.529,1.165-1.588,2.117-1.906,3.601 c0.847-0.847,2.436-1.271,3.494-1.588l-0.106,0.106c-0.106,0.106-1.271,0.953-2.117,1.906c0.742,0,0.212-0.106,1.165,0.106 h0.529c-0.212,0.106-0.529,0.317-0.847,0.423l0,0c-0.423,0.212-0.953,0.529-1.377,0.742 c2.012,2.542,4.447,4.659,7.306,6.035c3.707,1.8,7.73,2.436,11.859,1.906c0-0.212-0.106-0.423-0.212-0.742l0,0l0,0 c-0.106-0.317-0.212-0.529-0.212-0.847l0,0l0,0c1.377-2.542,0.635-6.989,4.236-8.789c2.436-1.271,2.647-1.906,5.401-1.377 c1.482,0.317,4.765,1.377,6.247,1.059c1.377-0.742,2.117-1.165,3.388-2.012c1.482,0.317,2.012,0.106,2.542-0.635 c-0.529,0.742,0.953-2.753,1.588-4.024L60.546,33.164z"/></defs><clipPath id="SVGID_13_"><use overflow="visible" xlink:href="#SVGID_12_"/></clipPath><polygon fill="#F2F2F2" points="36.403 9.869 36.403 63.555 53.134 56.884 53.134 3.091" clip-path="url(#SVGID_13_)"/></g></g></g></g><g><g><g><g><defs><path id="SVGID_14_" d="M60.546,33.164c-0.635-1.8-0.423-4.871-0.742-5.295c-2.012-2.753-9.212-3.176-12.495-6.777 c0.529-1.8-0.635-3.176-1.8-4.341c-1.8-1.271-4.236-0.742-6.141-0.212c-2.117-0.423-4.13-1.271-6.247-1.8 c-4.659-0.529-9.319,2.753-9.319,2.753c-3.388,2.117-8.577,6.566-11.119,9.106c0.635,0.106,1.271-0.423,2.012-0.423 l4.871-1.271c-2.012,1.694-6.247,4.553-7.518,6.883c1.482-0.529,4.659-2.224,6.247-2.436 c-1.377,1.165-4.236,3.494-5.189,4.976c0.106,0.106,0,0.212,0,0.317c1.165-0.635,4.024-2.33,5.401-2.436 c-1.377,1.377-3.812,4.13-4.341,5.93c1.165-0.742,4.13-2.33,5.401-2.753c-0.317,0.742-0.953,1.271-1.377,1.906 c-0.635,0.953-2.012,2.117-2.012,3.282c1.059-0.953,2.33-1.8,3.601-2.436c-0.529,1.165-1.588,2.117-1.906,3.601 c0.847-0.847,2.436-1.271,3.494-1.588l-0.106,0.106c-0.106,0.106-1.271,0.953-2.117,1.906c0.742,0,0.212-0.106,1.165,0.106 h0.529c-0.212,0.106-0.529,0.317-0.847,0.423l0,0c-0.423,0.212-0.953,0.529-1.377,0.742 c2.012,2.542,4.447,4.659,7.306,6.035c3.707,1.8,7.73,2.436,11.859,1.906c0-0.212-0.106-0.423-0.212-0.742l0,0l0,0 c-0.106-0.317-0.212-0.529-0.212-0.847l0,0l0,0c1.377-2.542,0.635-6.989,4.236-8.789c2.436-1.271,2.647-1.906,5.401-1.377 c1.482,0.317,4.765,1.377,6.247,1.059c1.377-0.742,2.117-1.165,3.388-2.012c1.482,0.317,2.012,0.106,2.542-0.635 c-0.529,0.742,0.953-2.753,1.588-4.024L60.546,33.164z"/></defs><clipPath id="SVGID_15_"><use overflow="visible" xlink:href="#SVGID_14_"/></clipPath><polygon fill="#FFF" points="70.076 9.869 70.076 63.555 53.134 56.884 53.134 3.091" clip-path="url(#SVGID_15_)"/></g></g></g></g></g></g></g></svg>